<svg xmlns="http://www.w3.org/2000/svg" viewBox="0 0 320 384" role="img" aria-label="İstanbul Gelişim Üniversitesi Kariyer Geliştirme Ofisi"><path d="M166 369.84L158.17 370L150 369.78L140.5 368.69L134.83 367.73L122.83 364.75L114.33 361.77L109.33 359.73L102.83 356.71L95.5 352.78L89 348.76L83.17 344.76L76.67 339.78L68.67 332.78L63.21 327.5L57.15 320.83L51.11 313.5L46.13 306.83L41.11 299.33L37.07 292.67L30.04 279.33L27.1 272.83L23.05 262.67L20.07 254L17.14 244L15.11 235.83L13.13 226.33L11.03 212.17L9.97 200L9.64 191.67L9.9 173.17L11.24 158.33L13.07 146.17L14.08 141L16.09 132.33L19.08 121.67L25.09 104.5L28.07 97.5L32.06 89.17L36.08 81.67L41.09 73.33L46.15 65.83L51.11 59.17L57.06 52L63.17 45.31L67.33 41.18L74.17 35.01L79 31.07L85.83 26.06L93.5 21.1L100.67 17.07L106.67 14.11L113.83 11.11L125.83 7.11L139.5 4.12L148.5 3.09L155.67 2.76L162.17 2.77L171.5 3.29L177.83 4.1L188 6.09L195.17 8.07L201.33 10.11L213.17 15.07L220.83 19.07L226 22.1L232 26.02L238.83 31.09L245.91 37L250.5 41.22L254.66 45.33L260.73 52L266.67 59.17L271.71 65.83L279.79 78.33L284.76 87.33L287.76 93.33L293.81 107.33L298.74 121.5L300.73 128.33L303.67 140.67L305.7 151.83L306.74 159.33L307.75 170.5L308.09 177.5L308.07 195.33L307.76 201.83L306.71 212.67L305.69 220.5L303.76 231.33L301.76 240.17L299.7 247.83L296.77 257.33L293.81 265.33L290.73 272.83L286.73 281.5L282.74 289.17L278.77 296L274.74 302.33L269.75 309.5L263.67 317.31L258.83 322.87L254.54 327.5L249.17 332.76L242.57 338.67L236 343.79L230.33 347.79L224 351.78L216.83 355.79L210.67 358.76L203.5 361.76L195 364.69L187.33 366.77L182.67 367.77L177.33 368.69L166 369.84ZM162.38 44.5L166.5 43.57L168.54 41.83L169.67 39.76L170.12 35.17L170.08 20L169.91 19.33L169.17 18.96L164.5 19L163.43 19.5L163.25 34.17L163.01 36.33L162.67 37.17L161.83 37.96L160.67 38.37L159.33 38.47L157.5 38.41L156.17 38.08L155.17 37.36L154.68 36.33L154.36 32.83L154.3 19.5L153.33 18.96L148.04 19.17L147.63 20L147.69 36L148.09 39.67L148.97 41.5L150 42.69L151.17 43.52L153.83 44.39L156.33 44.63L162.38 44.5ZM131.67 49L136.17 47.39L136.98 46.5L134.19 38.17L136.11 23.67L136.63 21.5L136.51 20.67L136.17 20.41L130.67 22.28L129.34 23.33L128.84 31.5L128.5 32.37L128 32.38L127.17 31.92L122.62 27.17L121.17 26.02L120.17 26.11L117 27.23L114.67 28.12L114.3 28.5L114.76 29.5L127.54 41.17L130.33 48.47L131 49L131.67 49ZM194.2 51L194.79 50.5L195.67 48.1L196.34 44.83L196.02 42.5L194.93 41L194.77 40.33L195.17 39.89L196.33 39.55L197.67 38.65L198.67 37.45L199.5 35.63L200.29 31.17L199.87 28.5L198.67 27.1L195.3 25.17L186.33 22.22L183.33 21.32L182.67 21.32L182.13 21.83L181.17 24.76L175.71 43.17L175.13 44.33L175.18 45.17L175.83 45.68L180.5 46.95L181.33 46.99L181.82 46.5L183.08 42.33L183.83 41L184.67 40.69L186.83 41.16L188.67 42.11L189.22 43.33L188.75 46.17L187.94 48.33L188.17 49.27L192 50.57L194.2 51ZM190.5 36.02L188.17 35.63L186.33 34.98L185.83 34.5L185.76 33.67L186.1 32.33L187.01 29.83L187.67 29.17L188.67 29.07L191.33 29.92L192.79 31.33L192.76 32.83L192.02 34.83L191.5 35.56L190.5 36.02ZM208.04 59.83L208.67 59.39L215.06 48.17L217.61 44.17L218.17 43.78L218.83 43.79L222.33 45.83L223.33 46.08L224.58 44.67L226.09 41.67L225.72 41L223 39.31L209.5 31.74L208.92 32L208.22 32.83L206.62 35.67L206.52 36.33L208 37.52L210.8 39.17L211.22 39.83L211.24 40.5L206.72 48.5L204.17 52.5L202.25 56.33L202.5 56.83L203.5 57.58L207.17 59.72L208.04 59.83ZM100.91 66.5L105 63.51L105.37 62.5L97.07 50.5L96.64 49.67L96.67 49.16L97.67 49.21L107 55.6L111.83 58.57L112.5 58.5L116.83 55.62L119.67 53.64L120.08 53L119.94 52.17L118.64 50.17L107.67 33.94L106.67 32.62L106.17 32.31L105.5 32.48L101.5 35.22L101.16 35.67L101.14 36.33L109.83 49.15L109.83 49.71L109.17 49.72L98 42.24L94.5 40.17L93.83 40.35L88.16 44.17L86.51 45.33L86.25 45.83L86.39 46.5L99.33 65.66L100.17 66.55L100.91 66.5ZM84.13 84L84.77 83.67L95.67 71.99L96.83 70.67L96.93 70L96.57 69.33L94.33 67.26L93.33 66.56L92.67 66.55L84.83 74.61L84.17 74.71L83.05 73.83L81.9 72.67L81.92 71.5L88.65 64.33L88.93 63.33L86.62 61L85.33 60.36L77.83 68.11L76.83 68.04L75.25 66.67L74.9 66L75.08 65.17L79.67 60.53L82.39 57.33L82.2 56.5L80.78 55L79 53.42L78.33 53.28L77.26 54.17L66.1 66.17L65.83 67.17L68.2 69.67L83.2 83.67L84.13 84ZM163.6 315.17L170.67 314.58L180.17 312.6L186.33 310.65L191.42 308.67L199.5 304.65L208.83 298.67L216.46 292.5L221.61 287.67L225.5 283.49L232.67 274.59L239.65 264L243.63 256.83L248.63 245.83L252.67 234.67L255.67 223.74L256.75 218.67L258.61 207.33L259.63 195.67L259.82 182.67L259.5 174.21L257.6 158.5L255.67 148.88L251.68 135L247.62 124.5L242.63 114L235.61 102.33L229.6 94.17L223.54 87.17L215.44 79.33L207.67 73.23L203.01 70.17L197.83 67.16L191.83 64.28L186.67 62.25L176.83 59.32L169.5 58.01L158.17 57.28L148.17 58.05L142 59.12L137.5 60.23L128.33 63.31L124 65.22L118.17 68.23L110.33 73.2L106.3 76.17L101.33 80.3L93.17 88.31L85.17 98.14L78.28 108.5L73.17 117.99L68.23 129.33L64.22 141.17L62.17 149.27L60.23 158.33L59.26 165.17L58.17 177.83L57.99 189L58.19 195L59.17 206.48L60.29 214.33L63.31 228L67.28 240.83L69.17 245.78L72.17 252.53L77.22 262.33L82.26 270.5L90.17 281.02L97.17 288.53L106.33 296.63L114.98 302.67L124.16 307.67L134.17 311.61L142.06 313.67L147.17 314.6L150.33 314.91L156.83 315.27L163.6 315.17ZM241.36 88L243.14 87.5L245.82 85.67L258.17 74.61L258.52 74L258.32 73.33L254.67 69.39L253.83 69.15L241.67 79.84L239.5 80.7L238 79.94L236.94 79L235 76.42L234.88 75.33L235.18 74.5L237.33 72.19L247.87 62.5L247.55 61.5L244.5 58.18L243.5 57.58L242.33 58.18L230.21 69.17L228.19 72L227.62 74.17L227.92 77.17L229.09 79.5L234.35 85.33L235.88 86.67L237.67 87.76L239.33 88.1L241.36 88ZM253.14 62.67L255.33 60.66L255.63 60L254.5 58.43L253.33 57.57L251.98 58.17L250.58 59.33L250.25 60L250.36 60.5L252.17 62.51L253.14 62.67ZM257.22 66.83L258.67 65.61L259.57 64.33L257.83 62.08L257.17 61.72L256.33 62.07L254.2 64.33L254.37 64.83L256 66.72L256.5 66.97L257.22 66.83ZM69.45 103.17L71.34 102.67L73.66 100.67L78.62 93L79.56 89.83L79.41 88.17L78.84 86.5L76.97 84.33L73.67 82.21L71.67 81.47L70 81.42L68.17 82.06L66.5 83.35L61.08 89.67L60.33 90L59.33 89.85L58.33 88.98L58 88.33L58.14 87.5L59 85.83L60.54 84L61.33 83.75L62.5 83.86L63 83.52L65.74 79.5L65.94 78.83L65.67 78.15L63.33 76.93L61.5 76.68L59.5 77.02L57.67 78.24L56.32 79.67L52.21 86L51.17 89L51.33 91.28L52.5 93.33L53.62 94.5L55.17 95.6L57.33 96.76L60.5 97.34L62.33 96.8L63.67 95.82L69.33 89.05L70.33 88.77L71.53 89.17L72.66 90.17L72.86 90.83L72.69 91.67L71.74 93.33L70.71 94.83L69.67 95.8L68.83 96.01L67.5 95.77L67 96.01L64.1 100.5L64.43 101.5L66.33 102.67L69.45 103.17ZM253.95 116.5L274.5 105.62L275.59 104.5L275.52 104L273.5 100.33L272.67 99.35L272.17 99.24L259.83 105.8L258.67 106.15L258.37 106L258.85 104.83L266.63 95.5L268.83 92.48L268.67 91.15L265.56 85.33L264.67 83.89L264.17 83.58L262.17 84.27L243.33 94.19L242.13 95.17L242.15 95.83L243.73 98.5L244.33 100.05L244.83 100.57L245.5 100.73L247.86 99.67L258 93.98L259.17 93.64L259.59 93.83L259.24 94.83L248.86 107.33L249.04 108.67L251.17 112.84L253.17 116.19L253.95 116.5ZM61.09 125.67L61.67 125.07L68.67 109.73L68.79 108.33L64.67 106.19L63.76 106.33L63.17 107.1L60.77 112.83L58.92 116.5L58.33 116.9L57.33 116.73L55.28 115.67L54.94 114.5L58.83 106.07L59.04 105.33L58.83 104.58L55.83 103.04L54.67 103.17L54.17 103.81L50.39 112.33L49.67 112.98L48.67 112.85L46.94 111.83L46.64 110.83L49.04 105L50.69 101.67L50.76 100.83L50.33 100.22L48.17 99.21L46.5 98.52L45.83 98.66L45.17 99.4L42.79 105.17L38.24 114.83L38.2 115.5L39.83 116.65L59.33 125.09L60.17 125.64L61.09 125.67ZM131.83 137.17L129.33 137.28L126.51 136.83L124.17 135.82L122.43 134.67L120.17 132.36L119 130.69L118 128.67L117.13 125.33L117.12 122.5L117.92 119.5L119 117.3L120.06 115.83L121.83 113.97L124.38 112.17L126.75 111.17L128.33 110.85L131.83 110.76L133.83 111.04L136.44 112L138.17 113.06L140.64 115.33L141.8 116.83L142.83 118.7L143.71 122L143.65 125.83L142.91 128.83L141.75 131.17L140.77 132.5L138.54 134.67L136.67 135.79L134.17 136.76L131.83 137.17ZM284.29 117L286.17 116.42L287.28 115.5L286.67 112.97L285.83 112.13L285 112.15L282.67 113.04L282.04 113.67L282.11 114.67L283 116.7L283.5 117.1L284.29 117ZM258.43 128L280.5 119.79L280.84 119.33L280.8 118.67L278.75 113.67L278 113.34L275.39 114.17L255.5 121.36L255.03 122L255.03 122.83L256.95 127.5L257.5 128.07L258.43 128ZM203.83 212.83L190 212.59L178.83 211.75L161.17 208.74L150.83 206.7L142.83 204.74L129.5 200.74L123.67 198.74L110.83 193.75L102.33 189.73L96.83 186.75L90.17 181.74L88.08 179.67L87.15 178.33L86 176.18L85.29 174.17L85.25 172.83L85.78 171.33L86.67 170.14L87.33 169.69L88.39 170.17L90.33 173.13L93.46 176.5L96.08 178.67L100.5 181.61L106.17 184.61L113.17 187.73L114.67 188.07L115.33 187.76L115.68 187.17L114.68 172.5L113.64 163.5L112.56 157.17L110.6 149.17L108.55 143L104.61 134.17L100.66 127.17L96.55 121.17L94.67 118.83L94.55 118L95 117.83L95.83 118.01L101.83 122.09L107.6 127.17L111.74 131.67L115.75 136.83L118.73 141.5L121.77 147.17L125.19 155.17L126.14 156.5L126.67 156.7L128.67 155.58L133.5 151.59L141.63 143.5L147.66 135.83L157.16 121.17L158.17 119.93L158.67 119.83L158.88 121L157.76 125.5L154.74 135.17L151.75 142.83L146.74 153.33L141.78 162L136.76 169.67L130.72 177.83L121.04 189.17L120.97 190.33L121.5 190.78L124.11 191.67L153.66 199.67L169.83 202.61L178.5 203.67L190.83 203.98L207.33 203.83L211.67 203.61L216.67 202.64L221.83 200.63L223.67 199.52L225.7 197.67L226.53 196.33L226.8 195.17L226.69 192.83L225.96 190.83L226.05 190.33L226.5 190.1L228 190.93L232 194.03L234.76 197.17L235.85 199L236.65 201.17L236.81 202.5L236.67 203.51L235.84 205.33L233.5 207.69L229.82 209.67L226.67 210.8L220.83 212.05L215.33 212.54L203.83 212.83ZM190.33 146.18L187.83 146.3L185 145.88L182.58 144.83L181.17 143.89L178 140.67L177 138.89L176.2 136.33L175.97 134.33L176.24 131.83L177.05 128.83L178 127L179.3 125.33L180.76 124L182.33 123L184.83 122.02L189.67 121.57L192.5 122.06L194.67 123.02L197.5 125.16L198.73 126.67L199.83 128.47L200.77 131.17L201.01 133.83L200.78 136.67L199.83 139.36L198.83 141.02L196.5 143.57L194.83 144.74L192.67 145.74L190.33 146.18ZM288.21 149.67L288.62 149.33L288.68 148.5L287.76 143.67L287.17 142.93L270.33 142.01L269.52 141.83L269.25 141.5L269.71 140.83L272.83 139.08L284.76 133.33L285.23 132.17L284.09 126.83L283.64 126.17L282.83 126.21L278.33 128.78L261.59 137.17L260.81 138L260.7 138.67L261.04 140.83L262.29 146.83L262.67 147.6L263.33 148.06L288.21 149.67ZM203.67 201.19L202.5 200.91L199.83 198.81L196.14 195.17L193.11 191.67L185.13 180.67L178.06 169.17L171.09 155.83L167.11 146.83L165.08 141.33L164.03 137.67L162.9 132L163.18 130.83L163.83 130.87L164.67 131.78L168.21 138.17L172.27 144.33L179.29 153.5L184.17 158.79L188.17 162.63L191.83 165.53L193.83 166.65L194.38 166.5L194.77 166L198.06 158.17L201.06 152.5L204.04 147.83L208.17 142.39L213.26 137.17L218.17 133.15L222.82 130L224.17 129.46L224.83 129.72L224.95 130.33L224.76 130.83L220.18 136.5L218.17 139.45L215.2 144.67L212.17 151.16L209.26 159.67L207.25 167.67L206.17 174.23L205.14 183.17L204.19 200L203.67 201.19ZM52.87 158L53.61 157.17L56.67 141.67L56.65 140.67L56.17 140.17L51.83 139.25L51 139.52L50.54 140.83L49.04 148.83L48.78 149.5L48.33 149.85L47.17 149.87L30.83 146.67L30.17 146.77L29.56 147.5L28.64 152.33L28.83 153.12L29.33 153.57L48.33 157.14L52.17 158.07L52.87 158ZM268.04 177L271.5 176.67L272.26 176L272.36 175.33L271.18 165.5L271.63 164.33L272.5 163.94L274.83 163.92L275.45 164.17L275.8 164.67L276.86 174.33L277.33 175.2L277.83 175.33L281 175L281.8 174.5L280.91 164.17L281.5 163.22L283.33 162.86L284.5 163L284.97 163.67L286.27 174.5L287.33 174.78L290.67 174.46L291.5 174.15L291.84 173.17L290.09 156.67L289.67 155.7L288.83 155.46L267.83 157.52L265.67 157.82L265.02 158.17L264.82 159L266.49 175.67L267 176.78L268.04 177ZM45.39 184.5L48 183.7L49.57 182.5L50.63 181L51.33 178.67L51.72 176.17L51.93 169.17L51.6 166.67L50.67 164.81L48.67 163.16L45.17 162.13L29.5 161.05L27.32 161.17L26.98 161.83L26.71 166.5L26.78 167.17L27.17 167.69L43.67 169.14L44.83 169.77L45.65 170.83L45.89 171.83L45.85 173.67L45.64 175.17L44.92 176.67L43.17 177.54L39.17 177.55L27 176.69L26.33 176.82L25.9 177.67L25.64 182.17L25.94 183.17L26.83 183.59L41.83 184.58L45.39 184.5ZM285.41 202.17L288.78 201.5L289.86 200.67L290.83 199.08L291.51 196.67L291.78 194.33L292.1 182.83L291.85 182.17L291 181.87L267.83 181.5L267.17 181.73L266.75 182.67L266.63 187.33L266.93 188L267.67 188.43L273 188.66L273.75 189.17L273.93 190.33L273.77 193.17L272.67 194.61L271.5 194.9L267.5 194.84L266.59 195.33L266.45 200.5L266.73 201.5L267.67 201.9L273.67 201.76L275.5 200.74L276.33 199.41L277.17 199.04L277.67 199.33L278.31 200.67L279.86 201.67L282 202.07L285.41 202.17ZM284.17 195.02L281.5 195.01L280.7 194.67L280.07 194L279.78 193.17L279.71 191.33L279.81 189.5L280.24 188.83L284.83 188.71L285.92 189.17L286.13 190.17L285.93 193.5L285.17 194.55L284.17 195.02ZM28.25 211.83L34.67 211.18L51.17 210.08L52 209.73L52.26 209L51.35 196.83L50.61 193L49.57 191L48.5 190.14L47.5 189.83L43.17 189.74L40.64 190.33L39.36 191.5L38.7 192.83L38.33 193.09L37.5 192.85L36 191.31L34.33 190.89L30 191.11L27.83 192.26L27 193.33L26.41 195.17L26.19 199L27.04 211L27.38 211.67L28.25 211.83ZM43.17 203.84L42.17 203.72L41.6 203L41.13 198.67L42.17 197.13L44.17 196.81L44.98 197.17L45.77 198.33L46.01 202.5L45.83 203.17L45.33 203.65L43.17 203.84ZM34 204.53L33 204.46L32.22 203.67L31.91 199.67L32.13 198.83L32.67 198.23L34.33 197.81L35.5 198.1L36.06 198.83L36.69 203L36.48 203.67L36 204.06L34 204.53ZM283.97 228.17L285.5 227.86L286.46 227.33L287.67 226.21L288.81 224L289.66 220.33L290.15 215.17L289.99 212.17L289.24 210.5L287.8 209.17L285.17 208.18L280.67 207.72L278.29 208.17L277.17 209.07L276.12 210.5L275.25 212.83L273.55 219.17L272.67 220.13L271.5 220.32L270.17 219.89L269.57 219L269.38 218L269.72 215.67L269.95 214.5L270.36 213.83L271.17 213.07L272.33 212.78L272.81 212.33L273.6 206.83L272.83 206.19L270 205.99L268.5 206.25L267 207.09L266.15 208L265.19 209.83L264.24 213.67L263.45 220.5L263.76 222.83L264.33 224.22L265.69 225.67L267.17 226.58L268.17 226.89L273 227.6L274.5 227.44L276.01 226.83L277.5 225.49L278.5 223.49L280.09 217.5L280.91 215.83L281.83 214.98L283 214.87L283.83 215.28L284.39 216.33L284.15 219.33L283.67 220.67L282 221.58L281.32 222.33L280.76 227.17L280.93 227.67L281.5 228.05L283.97 228.17ZM34.9 243.83L55.12 239.5L57.33 238.98L57.95 238.5L58.01 237.83L57.12 233.5L56.83 232.76L56.33 232.4L47 234.33L41.67 235.74L41 235.78L40.5 235.5L41.67 234.14L48.5 229.66L54.84 225L55.08 224.17L54.54 220.83L53.5 216L52.95 215.17L52 215.03L49.17 215.8L37.01 218.17L29.5 219.85L28.62 220.33L28.49 221L29.35 225.17L29.76 226L30.33 226.43L44 223.61L45 223.48L45.37 223.67L44.99 224.67L36.5 230.31L32.35 233.33L31.5 234.33L31.44 235L33.19 243.17L33.83 243.83L34.9 243.83ZM164.67 221.21L163.5 221.07L162.7 220.5L162.65 219.67L163.15 219L164.5 218.65L165.88 219.33L165.97 220.5L164.67 221.21ZM125.83 235.67L123.33 235.72L122.33 235.34L118.5 230.68L117.67 230.23L117.17 230.43L116.5 231.5L116.35 234.33L115.83 235.36L115.17 235.7L113.83 235.78L112.7 235.33L112.23 234.17L112.21 223.67L112.75 222.33L113.5 221.98L115 221.99L116 222.41L116.41 223.5L116.35 226.67L116.5 227.08L116.83 227.22L117.67 226.79L121 222.82L121.83 222.17L125 221.93L125.81 222.17L125.92 222.67L125.65 223.17L121.33 227.26L121.05 228L121.31 228.67L125.9 234.17L126.22 235.17L125.83 235.67ZM143.17 235.71L141 235.77L140.17 235.54L139.23 234.5L138.5 232.71L137.17 232.17L133.5 232.3L131.5 235.44L130 235.76L128.32 235.5L128.21 234.33L132.14 224.67L133.34 222.33L134.33 221.97L137.33 221.98L138.67 222.55L143.64 234.33L143.67 235.3L143.17 235.71ZM158.83 235.68L157 235.69L156.17 235.38L155.26 234.17L154.12 231.33L153.33 230.72L151.83 230.32L151.14 230.5L150.65 231.17L150.61 234.33L150.14 235.33L149 235.78L147.5 235.74L146.84 235.33L146.44 234.17L146.41 223.67L147 222.35L147.67 222.05L150 221.92L155.17 222.11L157.5 222.94L158.78 224L159.36 225.5L159.21 226.67L158.74 227.67L157.15 229L156.95 229.5L158.57 231.67L159.51 234.33L159.5 235.23L158.83 235.68ZM165.67 235.68L163.17 235.73L162.58 235.33L162.2 234.5L162.19 223.17L162.61 222.33L163.67 221.99L165.67 222.1L166.17 222.45L166.36 223L166.38 234.33L166.15 235.17L165.67 235.68ZM176.17 235.84L174.5 235.77L173.74 235.17L173.51 234.33L173.54 230.17L172.5 228.35L168.83 223.56L168.46 222.67L168.67 222.16L171.33 222.05L172.5 222.55L173.71 224.17L175.17 227.06L175.67 227.36L176.33 226.96L178.1 223.5L179.17 222.27L179.83 222.02L182 221.99L182.82 222.33L182.7 223.33L178 229.4L177.67 230.67L177.68 234.83L177.17 235.57L176.17 235.84ZM195.67 235.69L186.5 235.82L185.17 235.36L184.84 234.17L184.86 223.5L185.33 222.23L186.5 221.99L194.33 222.01L195.33 222.15L195.79 222.5L196.01 223.67L195.33 224.49L189.67 224.66L189.07 225.17L188.92 226L189.17 226.98L189.67 227.36L194.33 227.36L195.5 228L195.6 229.17L194.83 229.88L189.33 230.12L189.02 230.67L188.95 232L189.17 232.79L189.67 233.11L195.67 233.25L196.28 233.83L196.43 234.5L196.2 235.17L195.67 235.69ZM211.83 235.7L209.67 235.78L208.83 235.47L208.07 234.67L206.67 231.22L204.67 230.34L203.68 230.5L203.25 231L203.22 234.33L202.68 235.5L200.67 235.77L199.48 235.33L199.03 234.17L199.05 223.67L199.57 222.5L200.83 222.02L207.67 222.14L210.33 223.05L211.49 224.17L212 225.33L211.92 226.67L211.44 227.5L209.81 229L209.59 229.5L210.87 231L211.83 233.29L212.3 235L211.83 235.7ZM153.46 228L154.42 227.67L154.98 227L155.29 226.17L155.03 225.33L154.5 224.79L153.5 224.37L151.17 224.41L150.62 225.33L150.78 227.67L151.5 228.12L153.46 228ZM205.99 228L207 227.64L207.69 227L207.99 226.17L207.78 225.33L206.17 224.37L204.33 224.23L203.53 224.5L203.16 225.33L203.33 227.69L204.17 228.09L205.99 228ZM137.06 229.83L137.42 229.5L137.41 229L136.17 225.67L135.5 225.26L135.12 225.67L134.07 229.5L134.67 229.92L137.06 229.83ZM283.71 243L284.33 242.7L284.67 242.18L285.92 237.67L285.89 236.83L285.48 236.33L262.82 230.17L262 230.17L261.33 230.74L259.97 235.67L259.97 236.33L260.36 236.83L281.33 242.57L283.71 243ZM291.62 243.5L292.72 241L292.67 240.08L291.77 239.5L289.67 238.88L288.5 239.01L288.15 239.5L287.64 241.67L287.77 242.5L288.33 242.91L290.67 243.59L291.62 243.5ZM44.04 267L67.33 265.07L68.33 264.59L68.34 264L66.11 258.5L65.33 258.01L62.5 258.24L61.47 257.83L61 257.17L59.12 252.5L58.98 251.67L59.16 251.17L61.56 249.17L62.06 248.17L60.67 243.81L59.67 242.13L58.83 242.23L42.5 254.25L38.95 257.17L38.79 257.83L39.28 259.5L42.05 266.5L42.83 267.06L44.04 267ZM141.5 259.84L139 259.77L138.49 259.33L138.19 258.33L138.21 247.33L138.67 246.56L139.84 246L138.67 244.67L138.55 244.17L139.15 243.17L140.17 242.83L141.33 243.06L142 243.74L142.04 244.67L140.78 246L142 246.59L142.42 247.5L142.34 258.33L142.09 259.33L141.5 259.84ZM178.17 259.88L175.5 259.82L175.08 259.5L174.84 258.67L174.8 247.33L175.17 246.6L176.55 246L175.17 244.75L174.98 244.17L175.5 243.32L176.67 242.83L178 243.11L178.81 244.17L178.67 244.72L177.35 246L178.67 246.66L178.99 247.5L178.94 258.67L178.74 259.5L178.17 259.88ZM151.17 264.01L149.5 264.01L148.8 263.5L149.17 262.78L150.33 262.84L150.8 262.5L150.67 262.04L149.87 261.33L149.5 260.31L146.17 259.65L145.62 259.17L145.47 258.33L146 257.43L146.67 257.12L149.83 257.72L152 257.57L153.18 256.67L153.22 255.83L152.43 255L148.67 253.71L147 252.8L145.84 251.67L145.37 250L146.17 248.28L148 246.94L150.83 246.21L154.67 246.3L156 246.73L156.53 247.17L156.51 247.83L155.83 248.79L155.17 249.03L152.5 248.69L150.83 248.83L149.88 249.33L149.68 250.17L150 250.72L151.36 251.5L153.67 252.19L155.63 253.17L156.91 254.5L157.3 256.33L156.83 257.57L155.67 258.78L152.32 260.17L152.25 260.67L153.43 261.83L153.57 262.5L152.5 263.67L151.17 264.01ZM102.33 260.01L100.17 260.04L96.67 259.54L94.5 258.61L93.18 257.5L92.24 256.17L91.58 253.67L91.91 251.33L93.05 249.33L94.5 248.05L96.5 247.01L100.33 246.21L103.83 246.28L105.5 246.63L106.25 247.17L106.2 248.17L105.5 248.96L101.67 248.73L98.83 249L96.85 250.17L95.92 251.5L95.67 253.5L96.17 255.5L97.5 256.79L100.17 257.71L102.67 257.69L103.16 257.33L103.42 256.67L103.45 255.67L103.17 255.08L102.5 254.66L101.33 254.49L100.82 254L100.69 253.17L101.17 252.47L102 252.25L106 252.21L106.93 252.67L107.25 253.67L107.24 258.17L106.98 259L105.83 259.7L102.33 260.01ZM121.17 259.84L111.83 259.99L111.17 259.87L110.72 259.5L110.48 258.33L110.46 247.67L111 246.54L111.83 246.26L120.17 246.28L120.83 246.45L121.48 247L121.61 248L121 248.71L115.5 248.85L114.81 249.17L114.53 250L114.73 251.17L115.33 251.72L120 251.7L120.93 252.17L121.08 253.17L120.67 253.88L119.83 254.11L115.33 254.14L114.74 254.67L114.59 256L114.83 257.01L115.5 257.53L120.5 257.53L121.5 257.74L121.88 258.17L121.96 258.83L121.71 259.5L121.17 259.84ZM135.17 259.84L126 259.92L124.97 259.5L124.67 258.33L124.64 247.67L125.17 246.47L127.5 246.31L128.33 246.62L128.75 247.17L128.76 256.17L129 257.01L129.83 257.45L135.33 257.56L135.85 258L135.99 258.67L135.7 259.5L135.17 259.84ZM166 260L164.5 259.86L163.89 259.17L163.68 249.33L163 248.93L160.33 248.93L159.33 248.67L158.96 248.17L158.86 247.33L159.11 246.67L159.5 246.36L171.33 246.23L172.33 246.49L172.76 247L172.8 248L172.17 248.74L168.67 248.89L167.96 249.33L167.81 259L167.33 259.75L166 260ZM194.83 259.86L192.83 259.93L192 259.67L191.14 258.5L190.58 256.5L189.78 255.33L189.17 254.94L187.83 254.69L187 254.9L186.55 255.5L186.61 258.5L186.17 259.63L185.5 259.95L183.67 259.99L182.67 259.6L182.33 258.5L182.3 247.83L182.73 246.83L184 246.34L189.5 246.25L193 246.98L194.61 248.17L195.28 249.5L195.28 250.67L194.73 251.83L193.08 253.17L192.9 253.67L194.6 256.17L195.47 258.67L195.42 259.5L194.83 259.86ZM216.67 259.89L214.5 259.92L213.77 259.33L213.25 251.67L212.83 250.93L212.17 251.41L210.8 255.33L209.07 259L208.33 259.71L207.17 259.84L206.17 259.65L205.27 258.5L202.83 251.43L202.33 250.89L201.99 251.67L201.73 257.83L201.42 259.17L201 259.67L200.33 259.91L198.17 259.7L197.86 259.17L197.83 258.33L198.74 247.83L199.07 246.83L200.17 246.27L203 246.25L204.33 246.89L204.77 247.5L206.65 252.33L207.13 254.5L207.5 254.86L208.17 254.33L209.13 251.33L211.25 246.83L212.83 246.21L215.33 246.21L216.33 246.62L216.79 247.5L217.57 258.5L217.33 259.46L216.67 259.89ZM231.5 259.86L222 259.95L221 259.56L220.74 258.5L220.7 247.67L221.17 246.48L222 246.23L230.33 246.23L231.67 246.74L231.92 247.83L231.33 248.73L225.5 248.89L225 249.26L224.84 250L225 251.24L225.5 251.71L230.17 251.68L231.19 252.17L231.3 253.33L230.5 254.1L225.33 254.22L224.92 254.83L224.81 256.17L225 257.07L225.5 257.53L230.83 257.55L231.67 257.75L232.05 258.17L232.17 258.83L231.97 259.5L231.5 259.86ZM275.51 267.67L276.55 265.67L282.43 250.5L282.52 249.83L282.28 249.33L279.67 248.17L277.5 247.7L276.9 248.33L275.31 252.33L274.83 252.86L274.17 252.99L259.16 247.17L257.5 246.66L256.5 247.1L254.43 252L254.61 252.83L255.67 253.57L271.67 259.77L272.06 260.33L272.03 261L270.5 265L270.5 265.5L272 266.66L274.5 267.69L275.51 267.67ZM188.98 252.33L190.8 251.5L191.21 250.5L191 249.67L190.66 249.17L189.83 248.79L188 248.52L187.17 248.67L186.5 249.5L186.68 251.83L187.5 252.46L188.98 252.33ZM48.33 260.17L47 260.1L46.77 259.83L46.82 259.33L53 254.91L53.67 254.77L54.37 255.17L55.69 258.17L55.43 259L54.33 259.44L48.33 260.17ZM262.87 290.83L263.61 290.17L271.67 276.28L272.06 275.33L271.99 274.67L270 273.18L251.33 262.37L250.5 262.29L241.23 277.83L241.15 278.67L242.15 279.5L245.17 281.19L245.95 281.17L246.66 280.5L251.38 272.17L252.5 271.32L254.33 272.11L255.57 273.17L255.65 273.83L251.23 281.33L250.46 282.83L250.44 283.33L253.83 285.5L254.6 285.5L260 276.35L260.67 275.98L261.5 276.2L263.17 277.34L263.63 278L263.67 278.5L258.31 287.5L258.2 288.17L258.51 288.67L262 290.75L262.87 290.83ZM165 270.01L164 269.76L163.17 269.09L162.89 268.5L163.17 267.8L164.5 267.07L165.67 267.27L166.7 268.33L166.44 269L165 270.01ZM187.33 269.91L186.33 269.9L185.17 269.08L184.89 268.5L185.13 267.83L186.17 267.16L186.83 267.04L187.5 267.21L188.31 267.83L188.62 268.67L187.33 269.91ZM56.66 292.17L59.5 290.58L60.78 289.33L60.67 288.66L58.41 284.67L58.43 284.17L59 283.44L72.67 275.61L74.38 274.33L74.46 273.67L73.6 271.83L71.33 268.5L70.67 268.44L68.83 269.31L55.17 277.23L54.5 277.28L54 276.99L51.67 273.18L51 272.75L50.17 272.88L47.69 274.17L46.4 275.17L46.33 275.84L54.28 289.67L55.5 291.58L56.17 292.12L56.66 292.17ZM138.33 284.34L135.5 284.29L133.03 283.67L131.34 282.67L130.27 281.67L129.04 279.5L128.79 277.17L129.19 275.17L130.06 273.67L131.33 272.35L133.67 271L137.5 270.39L141.33 271.01L143.33 272.12L144.45 273.17L145.74 275.33L146 277.17L145.86 278.83L144.65 281.33L143.29 282.67L141.5 283.68L138.33 284.34ZM175.83 284.33L172.33 284.22L170.67 283.87L170.13 283.5L170.05 282.33L170.83 281.62L176 281.87L177.33 281.28L177.79 280.5L177.53 279.83L176.67 279.18L172.82 277.83L171 276.68L170.01 275.33L170 273.59L171.16 272L173.17 270.9L176.5 270.39L180.17 270.85L180.72 271.17L180.94 271.67L180.8 272.5L180.33 273.02L179.5 273.27L175.67 273.02L174.53 273.5L174.05 274.17L174.24 274.83L175.33 275.58L177.5 276.17L179.75 277.17L181.03 278.17L181.89 279.67L181.75 281.33L180.67 282.77L178.83 283.84L175.83 284.33ZM151.5 284.34L149.33 284.2L148.71 283.33L148.82 271.17L149.83 270.61L158.33 270.59L159.33 270.82L159.75 271.33L159.82 272L159.61 272.67L159.17 273.01L153.67 273.16L153.07 273.5L152.83 275.17L153.33 276.11L158.33 276.22L159.13 276.83L159.28 277.83L158.99 278.5L158.33 278.86L153.83 278.85L153.17 279.04L152.82 279.67L152.82 283.5L152.33 284.11L151.5 284.34ZM166 284.21L163.5 284.23L163 283.91L162.74 283.33L162.7 271.67L163 270.93L163.67 270.64L166.17 270.73L166.65 271L166.88 271.5L166.86 283.17L166.63 283.83L166 284.21ZM187.33 284.34L185.33 284.15L184.71 283.17L184.7 271.67L185 270.95L185.67 270.67L188.17 270.71L188.67 270.98L188.9 271.5L188.89 283.17L188.5 283.98L187.33 284.34ZM137.51 282L139.31 281.67L140.69 280.67L141.66 278.83L141.75 276.67L141.55 275.67L140.83 274.43L139.54 273.33L138.33 272.97L136.5 272.98L135.33 273.29L133.96 274.33L133.18 275.83L133.04 278.17L133.33 279.41L134.27 280.83L135.67 281.76L137.51 282ZM246.56 310.67L248.83 309.67L250.5 308.16L255.63 301.5L256.68 299.17L256.56 296.5L255.52 294.5L252.99 292.17L249.88 290.33L248 290.1L246.5 290.3L244.83 291.21L238.33 297.64L237.33 297.81L236 297L235.24 296.17L235.14 295.33L237.17 292.29L238.31 291.17L239 290.82L240.83 291.09L241.5 290.95L244.84 286.5L244.33 285.56L242.29 284.17L239.83 283.55L238.67 283.66L237.17 284.22L235.17 285.85L230.17 292.02L229.1 293.67L228.44 295.83L228.51 298.33L229.27 300.33L231.5 302.54L234.66 304.67L237 305.07L239.17 304.68L240.67 303.69L246.33 297.97L247.5 297.5L248.83 297.94L249.63 298.83L249.82 299.5L248.74 301.5L246.5 303.51L245 303.38L244.33 303.63L241.03 308L241.31 308.83L243.67 310.36L245 310.73L246.56 310.67ZM74.17 312.33L76.71 311.67L79.5 309.62L81.52 307.33L82.2 305.5L82.19 304L81.65 302L76.8 294.67L76.86 293.33L78 292.16L79 291.78L79.93 292L82.79 295L83.39 296.5L82.75 298.33L82.87 299L86.33 302.98L87.33 302.88L88.72 301.67L89.75 300.33L90.35 298.5L90.35 296.67L89.67 294.87L88.66 293.17L82.67 286.29L81.17 285.25L80.17 284.92L78 284.7L75.5 285.29L71.83 288.21L70 290.72L69.77 292.67L70.26 295.17L74.97 302.5L75.05 303.67L74.38 304.67L73.33 305.22L72.33 305.06L70.14 302.83L69.22 301.33L69.81 299.67L69.76 299.17L66.17 294.99L65.19 295L64.17 295.93L63.07 297.33L62.5 299L62.5 300.83L63.29 303.17L64.27 304.67L68.33 309.39L71 311.71L73 312.34L74.17 312.33ZM234.76 323.83L238.67 320.39L239.03 319.67L238.9 319L223.33 301.43L222.67 301.02L221.89 301.17L218.17 304.38L217.53 305.33L217.65 305.83L233.5 323.46L234.17 323.9L234.76 323.83ZM84.51 324.67L85.67 323.86L100.67 306L100.76 305.5L100.5 305L96.17 301.43L95.33 301.38L94.33 302.43L79.69 320L79.65 320.67L80.21 321.33L84.51 324.67ZM240.39 328.5L242.67 326.63L242.96 325.83L242.74 325.17L241.67 323.96L240.7 323L240.17 322.85L239.5 323.06L238.17 324.22L237.27 325.5L239.33 327.98L240.39 328.5ZM79.16 329.17L80.67 327.71L81.64 326.33L81 325.34L79.66 324.17L78.5 323.69L77.83 324.14L76.17 326.15L75.99 327L76.33 327.64L78.17 329.07L79.16 329.17ZM188.85 344.83L189.97 344.5L191.5 343.51L192.58 341.33L192.55 337.83L191.12 335.5L192.23 332.83L192.2 330.17L191.81 328.67L190.25 327.17L187.83 326.56L183.67 326.52L181 327.14L179.5 328.32L179.02 329L178.5 331.17L178.67 332.01L179.5 332.63L182.33 332.71L183 332.34L183.67 331.17L184.33 330.65L185.67 330.43L186.87 330.83L187.45 331.67L187.42 332.5L186.5 333.48L184.83 333.68L184.28 334L184.09 334.5L184.19 336.33L184.83 337.25L186.5 337.59L187.19 338L187.69 338.67L187.79 339.5L187.43 340.33L186.83 340.91L184.67 341.12L183.5 340.6L182.83 339.13L182.33 338.71L179 338.72L178.4 339L178.12 339.5L178.5 341.83L179.47 343.5L181.67 344.74L183.5 344.97L188.85 344.83ZM139.85 344.83L140.5 344.67L140.88 344L140.92 341.67L140.5 340.87L133 340.76L132.31 340.5L132.13 339.83L132.74 339L138 337.53L139.83 336.38L140.65 335.17L140.92 333.83L140.98 330.67L140.51 328.83L138.83 327.22L136.67 326.64L131.83 326.58L129 327.28L128 328.14L127.17 329.56L126.96 332L127.33 332.8L128.17 332.99L131 332.88L131.5 332.47L132.13 330.83L133.83 330.22L134.83 330.37L135.71 330.83L136.13 331.5L136.25 332.5L136 333.35L135.5 333.88L130.33 335.42L128.67 336.03L128.08 336.5L127.25 337.67L126.96 338.67L126.8 343.5L127 344.44L127.83 344.83L139.85 344.83ZM154.54 344.83L156.5 343.94L157.5 342.87L158.33 340.17L158.5 332.83L157.7 328.83L156.17 327.31L154.17 326.71L149.33 326.55L146.33 327.11L144.79 328.5L144.19 329.67L143.84 331.33L143.8 339.17L144.34 342.17L145.33 343.65L147.17 344.71L149.5 344.96L154.54 344.83ZM172.37 344.83L172.92 344.5L173.16 343.67L173.25 327.5L172.83 326.96L172.17 326.73L167.83 326.91L167.17 327.24L162.33 331.41L162 332.33L163.88 334.5L164.5 334.83L165.17 334.61L167.17 333.02L168 333.18L168.36 334L168.61 336L168.74 344.17L169.5 344.83L172.37 344.83ZM151.83 340.85L149.5 340.56L148.92 340L148.57 339L148.59 332.5L149.17 331.22L150.33 330.74L152.67 330.97L153.46 331.83L153.8 332.67L153.75 339L152.83 340.48L151.83 340.85Z" fill="#c81d3f" fill-rule="evenodd" clip-rule="evenodd" shape-rendering="geometricPrecision"/></svg>